<svg version="1.1" id="Layer_1" xmlns="http://www.w3.org/2000/svg" x="0" y="0" viewBox="0 0 457.22 151.45" xml:space="preserve"><style>.st0{fill:#fff}</style><path class="st0" d="M73.2 70.43c-.75-.69-2.14-.84-3.17-.84-1.07 0-2.51.15-3.26.84-.2.19-.75.69-.75 2.33v5.36c0 1.64.54 2.14.75 2.33.75.69 2.18.84 3.26.84 1.04 0 2.43-.15 3.17-.84.2-.19.75-.69.75-2.33v-5.36c0-1.64-.54-2.15-.75-2.33z"/><path class="st0" d="M95.41 40.54c-3.15-2.92-6.96-5.05-11.45-6.39-.75 4.77-2.13 8.96-3.62 12.4 1.74.77 3.28 1.77 4.61 3.01 3.52 3.26 5.28 7.77 5.28 13.52v24.7c0 5.76-1.76 10.27-5.28 13.53-3.52 3.26-8.47 4.89-14.87 4.89-6.52 0-11.54-1.63-15.06-4.89-3.52-3.26-5.28-7.77-5.28-13.53v-24.7c0-5.75 1.76-10.26 5.28-13.52 1.33-1.24 2.87-2.23 4.62-3a51.172 51.172 0 0 1-3.58-12.1c-4.45 1.42-8.25 3.57-11.4 6.46-6.08 5.57-9.12 13.02-9.12 22.36l.2 24.88c0 9.47 3.03 16.98 9.11 22.55 6.07 5.56 14.55 8.35 25.42 8.35 10.75 0 19.06-2.85 24.95-8.54 5.88-5.69 8.95-13.21 9.21-22.55V63.28c0-9.59-3.01-17.18-9.02-22.74z"/><path class="st0" d="M133.99 106.21c2.6 0 4.56-.71 5.99-1.59v37.8c0 4.99-4.04 9.03-9.03 9.03H9.02c-4.98 0-9.02-4.04-9.02-9.03V9.02C0 4.04 4.04 0 9.02 0h121.93c4.99 0 9.03 4.04 9.03 9.02v14.31c-.62.2-1.22.42-1.83.66-4.67 1.83-8.82 4.49-12.33 7.91-.07.07-.14.15-.21.22v-17.1c0-1.09-.88-1.97-1.97-1.97H16.33c-1.08 0-1.96.88-1.96 1.97v121.41c0 1.08.88 1.96 1.96 1.96h107.31c1.09 0 1.97-.88 1.97-1.96v-31.61c1.4.79 3.25 1.39 5.66 1.39h2.72z"/><path class="st0" d="M228.33 60.34v53.29c0 1.55-.52 2.84-1.55 3.88-1.04 1.04-2.46 1.55-4.27 1.55h-2.72c-1.81 0-3.24-.51-4.27-1.55-1.04-1.04-1.56-2.33-1.56-3.88V60.34c0-4.27-1.39-7.76-4.17-10.48-2.78-2.72-5.92-4.08-9.42-4.08h-3.3c-3.62 0-6.69 1.46-9.22 4.37-2.52 2.91-3.78 6.24-3.78 10v53.28c0 1.55-.52 2.85-1.56 3.88-1.04 1.04-2.46 1.56-4.27 1.56h-2.72c-1.81 0-3.23-.52-4.27-1.56-1.04-1.03-1.55-2.33-1.55-3.88V60.15c0-4.27-1.39-7.77-4.18-10.49-2.78-2.72-5.92-4.07-9.41-4.07h-3.3c-3.63 0-6.7 1.45-9.23 4.36-2.52 2.92-3.78 6.25-3.78 10v41.1h-14.37v-41.1c0-4.27.71-8.09 2.14-11.45 1.42-3.37 3.36-6.25 5.82-8.64 2.46-2.4 5.34-4.24 8.64-5.54 3.3-1.29 6.83-1.94 10.58-1.94h3.69c4.53 0 8.57.81 12.14 2.43 3.55 1.62 6.5 3.85 8.83 6.7 4.92-6.08 11.58-9.13 20-9.13l2.91.39c4.4 0 8.32.71 11.75 2.14 3.42 1.42 6.37 3.36 8.83 5.82 2.46 2.46 4.34 5.37 5.63 8.74s1.94 6.99 1.94 10.87zm35.32-26.02h-2.91c-1.81 0-3.27.55-4.37 1.65-1.1 1.1-1.65 2.43-1.65 3.98v73.48c0 1.55.55 2.88 1.65 3.98 1.1 1.1 2.55 1.65 4.37 1.65h2.91c1.81 0 3.27-.55 4.37-1.65 1.1-1.1 1.65-2.43 1.65-3.98V39.95c0-1.55-.55-2.88-1.65-3.98-1.1-1.09-2.56-1.65-4.37-1.65zm1.75-30.09h-6.41c-1.81 0-3.27.55-4.37 1.65-1.1 1.1-1.65 2.43-1.65 3.98v5.82c0 1.55.55 2.88 1.65 3.98 1.1 1.1 2.55 1.65 4.37 1.65h6.41c1.81 0 3.27-.55 4.37-1.65 1.1-1.1 1.65-2.43 1.65-3.98V9.86c0-1.55-.55-2.88-1.65-3.98-1.1-1.1-2.56-1.65-4.37-1.65zm91.69 38.26c-2.47-2.46-5.42-4.41-8.85-5.84-3.44-1.43-7.36-2.14-11.77-2.14l-13.42-.19c-4.02 0-7.75.65-11.19 1.95-3.44 1.3-6.42 3.15-8.95 5.54-2.53 2.4-4.51 5.29-5.93 8.66-1.43 3.37-2.14 7.2-2.14 11.48v51.47c0 1.56.52 2.85 1.56 3.89s2.46 1.56 4.28 1.56h2.72c1.81 0 3.24-.52 4.28-1.56s1.56-2.33 1.56-3.89V61.95c0-3.76 1.29-7.1 3.89-10.02 2.59-2.92 5.84-4.38 9.73-4.38h13.81c3.5 0 6.65 1.36 9.43 4.09 2.79 2.72 4.18 6.23 4.18 10.51v51.47c0 1.56.52 2.85 1.56 3.89s2.46 1.56 4.28 1.56h2.72c1.81 0 3.24-.52 4.28-1.56s1.56-2.33 1.56-3.89V62.14c0-3.89-.65-7.52-1.95-10.89-1.29-3.37-3.17-6.29-5.64-8.76z"/><path class="st0" d="M125.43 80.11v33.31c0 1.56.52 2.85 1.56 3.89s2.46 1.56 4.28 1.56h2.72c1.81 0 3.24-.52 4.28-1.56s1.56-2.33 1.56-3.89V80.11h-14.4zM455.57 5.88c-1.1-1.1-2.56-1.65-4.37-1.65l-2.91.19c-1.81 0-3.27.55-4.37 1.65-1.1 1.1-1.65 2.43-1.65 3.98v22.33c0 1.3-.65 1.94-1.94 1.94h-26.02c-8.42 0-15.24 2.49-20.48 7.47-5.24 4.98-7.86 11.62-7.86 19.9v29.99c0 8.29 2.59 14.92 7.77 19.9 5.18 4.98 12.04 7.47 20.58 7.47h14.56c8.54 0 15.4-2.49 20.58-7.47 5.18-4.98 7.77-11.62 7.77-19.9V9.86c-.01-1.55-.56-2.88-1.66-3.98zm-16.99 96.29c-2.46 2.59-5.76 3.88-9.9 3.88h-14.56c-4.14 0-7.44-1.29-9.9-3.88s-3.69-6.08-3.69-10.48V61.7c0-4.27 1.23-7.77 3.69-10.48 2.46-2.72 5.76-4.08 9.9-4.08h26.02c1.29 0 1.94.65 1.94 1.94l.19 42.61c0 4.4-1.23 7.89-3.69 10.48z"/></svg>